<svg width="16" height="16" viewBox="0 0 16 16" fill="none" xmlns="http://www.w3.org/2000/svg">
<g clip-path="url(#clip0_82_673)">
<path d="M8 16C12.4183 16 16 12.4183 16 8C16 3.58172 12.4183 0 8 0C3.58172 0 0 3.58172 0 8C0 12.4183 3.58172 16 8 16Z" fill="black"/>
<path d="M8 0.301035C12.2453 0.301035 15.699 3.75466 15.699 8C15.699 12.2453 12.2453 15.699 8 15.699C3.75466 15.699 0.301035 12.2453 0.301035 8C0.301035 3.75466 3.75466 0.301035 8 0.301035ZM8 0C3.58156 0 0 3.58156 0 8C0 12.4184 3.58156 16 8 16C12.4184 16 16 12.4184 16 8C16 3.58156 12.4184 0 8 0Z" fill="#D6DF24"/>
<path d="M4.56905 9.64414V6.30923C4.56905 4.56887 4.54326 3.62026 4.51562 3.44862H7.0025C6.97671 3.62026 6.92329 4.56887 6.92329 6.30923V8.44453C8.4891 7.41656 9.21306 6.28154 9.21306 5.16129C9.21306 4.52827 8.99016 3.94877 8.64752 3.44678H11.4236C11.4623 3.67009 11.4899 3.90817 11.4899 4.17208C11.4899 5.76663 10.4381 7.09912 7.98988 8.62908H8.75252C10.0033 8.62908 10.7531 9.19567 11.1215 10.423L11.7405 12.5066H9.21306C9.21306 12.3608 9.15964 11.9917 8.81884 10.8714C8.47621 9.75118 8.1741 9.36915 7.35803 9.36915H6.92329V9.73826C6.92329 11.3863 6.97671 12.3349 7.0025 12.5066H4.51562C4.54141 12.3349 4.56905 11.3863 4.56905 9.64598V9.64414Z" fill="white"/>
</g>
<defs>
<clipPath id="clip0_82_673">
<rect width="16" height="16" fill="white"/>
</clipPath>
</defs>
</svg>
