<svg width="171" height="100" viewBox="0 0 171 100" fill="none" xmlns="http://www.w3.org/2000/svg">
<g clip-path="url(#clip0_49_4)">
<g clip-path="url(#clip1_49_4)">
<path d="M52.9733 44.5597C53.0262 44.6479 53.0878 44.745 53.1495 44.8332H39.6199C39.5582 44.2067 39.4966 43.5095 39.4966 42.8124C39.4966 39.106 40.5624 34.7466 42.5619 29.0106H49.1946C49.1329 29.6989 49.1065 30.3872 49.1065 31.0932C49.1065 31.8786 49.1417 32.6552 49.2122 33.4229H49.1769C49.4588 36.9351 50.507 40.3503 52.4536 43.7037C52.621 43.9949 52.7884 44.2773 52.9733 44.5597Z" fill="white"/>
<path d="M77.3111 44.8244H64.4773C64.4773 43.7037 63.6581 40.615 61.8084 34.7378L61.782 34.6407C61.6586 34.2436 61.5265 33.8377 61.3944 33.4141L55.3078 14.4675C55.3078 14.4675 55.2638 14.5205 55.2374 14.5469L50.2959 1.26578H62.2048L63.526 5.07804L64.4597 7.76957L74.9857 38.1265L77.3111 44.8244Z" fill="white"/>
<path d="M136.458 44.5597C136.511 44.6479 136.573 44.745 136.634 44.8332H123.105C123.043 44.2067 122.981 43.5095 122.981 42.8124C122.981 39.106 124.047 34.7466 126.047 29.0106H132.679C132.618 29.6989 132.591 30.3872 132.591 31.0932C132.591 31.8786 132.627 32.6552 132.697 33.4229H132.662C132.944 36.9351 133.992 40.3503 135.939 43.7037C136.106 43.9949 136.273 44.2773 136.458 44.5597Z" fill="white"/>
<path d="M160.796 44.8244H147.962C147.962 43.7037 147.143 40.615 145.293 34.7378L145.267 34.6407C145.144 34.2436 145.011 33.8377 144.879 33.4141L138.793 14.4675C138.793 14.4675 138.749 14.5205 138.722 14.5469L133.781 1.26578H145.69L147.011 5.07804L147.945 7.76957L158.471 38.1265L160.796 44.8244Z" fill="white"/>
<path d="M11.5125 29.2576H0.255442V31.1461C0.255442 39.4677 0.123317 44.0124 0 44.8243H11.8912C11.7679 44.0036 11.5125 39.4677 11.5125 31.1461V29.2576Z" fill="white"/>
<path d="M16.6122 20.0535H20.2589C26.2397 20.0535 29.8247 17.3443 31.5864 11.4759L34.546 1.52164H22.461C22.461 2.21879 22.2055 3.98372 20.576 9.34031C18.9376 14.6969 17.4931 16.5236 13.591 16.5236H11.5122V20.9359C18.9993 25.8513 22.461 31.2785 22.461 36.6351C22.461 39.6619 21.3952 42.4329 19.7568 44.8332H33.031C33.2159 43.7654 33.3481 42.627 33.3481 41.3651C33.3481 33.7406 28.3185 27.3691 16.6122 20.0535Z" fill="white"/>
<path d="M117.784 15.1999C117.784 6.87825 117.908 2.34236 118.04 1.52167C114.64 1.33635 110.429 1.20398 107.787 1.20398C91.738 1.20398 84.568 5.23686 84.568 13.938C84.568 14.9087 84.6649 15.8353 84.8411 16.709H96.0277C96.0277 16.5854 96.0277 16.4619 96.0277 16.3295C96.0277 10.6552 99.366 6.05756 106.598 4.73385V28.8782C106.598 28.8782 106.554 28.8605 106.536 28.8517V28.8782H85.3343C83.3348 34.6231 82.269 38.9825 82.269 42.68C82.269 43.3683 82.3307 44.0655 82.3924 44.7009H95.922C95.8603 44.6126 95.8074 44.5244 95.7458 44.4273C95.5696 44.1449 95.3935 43.8625 95.2261 43.5713C93.2795 40.2179 92.2313 36.8028 91.9494 33.2905H106.518C106.518 33.5729 106.518 33.8465 106.518 34.1201C106.501 40.5003 106.325 44.0478 106.201 44.8244H118.031C117.908 44.0037 117.775 39.4678 117.775 31.1461V15.1999H117.784Z" fill="white"/>
</g>
</g>
<g clip-path="url(#clip2_49_4)">
<g clip-path="url(#clip3_49_4)">
<path d="M0.255442 85.1178V69.1716C0.255442 60.8499 0.132125 56.314 0 55.4934H11.8912C11.7679 56.314 11.5125 60.8499 11.5125 69.1716V79.3818C18.9996 74.4664 22.4612 69.0392 22.4612 63.6827C22.4612 60.6558 21.3954 57.8848 19.7571 55.4845H33.0312C33.2162 56.5523 33.3483 57.6907 33.3483 58.9526C33.3483 66.5772 28.3188 72.9486 16.6125 80.2642H20.2592C26.24 80.2642 29.825 82.9734 31.5867 88.8418L34.5463 98.8049H22.4612C22.4612 98.1078 22.2058 96.3428 20.5763 90.9862C18.9379 85.6297 17.4933 83.8029 13.5913 83.8029H11.5125V85.5679C11.5125 93.4483 11.7679 97.9842 11.8912 98.8049H0C0.123317 97.9842 0.255442 93.4483 0.255442 85.1266V85.1178Z" fill="white"/>
<path d="M36.7476 96.7753C36.7476 90.6597 39.6455 82.7793 44.8688 69.7982L50.5943 55.2375H59.4642L74.5617 98.7961H61.728C61.728 97.5959 60.7855 94.1278 58.6451 87.3858H46.4367C46.7538 91.2951 48.0134 95.0809 50.4005 98.7961H36.8709C36.8092 98.1695 36.7476 97.4724 36.7476 96.7753ZM57.1917 82.9734L51.4046 65.1917L49.0792 71.3072C47.4409 75.5342 46.6217 79.4436 46.3751 82.9734H57.2005H57.1917Z" fill="white"/>
<path d="M88.215 70.4247L86.9554 74.3958C85.6342 78.1816 85.3787 81.332 85.3787 83.5382C85.3787 88.6477 87.0787 93.7484 90.7254 98.7961H76.8787C76.7554 97.5341 76.7554 96.4664 76.7554 95.5839C76.7554 89.4684 78.3321 83.8559 81.2829 76.0372L85.7487 64.3092L82.2253 55.4845H93.9933L103.365 80.5731L106.263 70.2306C107.206 66.7007 107.646 63.9297 107.646 61.5912C107.646 59.5703 107.329 57.4965 106.448 55.4757H118.022L130.354 98.7873H117.961C117.961 97.5253 117.203 93.8101 114.878 84.8531L111.037 69.9129L109.531 75.5872L103.365 98.7873H99.5249L88.1974 70.4159L88.215 70.4247Z" fill="white"/>
<path d="M132.256 96.7753C132.256 90.6597 135.154 82.7793 140.377 69.7982L146.103 55.2375H154.973L170.07 98.7961H157.236C157.236 97.5959 156.294 94.1278 154.153 87.3858H141.945C142.262 91.2951 143.522 95.0809 145.909 98.7961H132.379C132.318 98.1695 132.256 97.4724 132.256 96.7753ZM152.709 82.9734L146.922 65.1917L144.596 71.3072C142.958 75.5342 142.139 79.4436 141.892 82.9734H152.718H152.709Z" fill="white"/>
</g>
</g>
<defs>
<clipPath id="clip0_49_4">
<rect width="170.08" height="43.6183" fill="white" transform="translate(0 1.20395)"/>
</clipPath>
<clipPath id="clip1_49_4">
<rect width="170.08" height="89.747" fill="white" transform="translate(0 1.20395)"/>
</clipPath>
<clipPath id="clip2_49_4">
<rect width="170.08" height="43.3045" fill="white" transform="translate(0 55.4915)"/>
</clipPath>
<clipPath id="clip3_49_4">
<rect width="170.08" height="89.747" fill="white" transform="translate(0 9.04904)"/>
</clipPath>
</defs>
</svg>
